<?xml version="1.0" encoding="UTF-8"?>
<svg id="Layer_1" data-name="Layer 1" xmlns="http://www.w3.org/2000/svg" viewBox="0 0 130.49 119.65">
  <defs>
    <style>
      .cls-1 {
        fill: #0050a0;
      }

      .cls-2 {
        fill: #fff;
      }

      .cls-3 {
        fill: #003051;
      }

      .cls-4 {
        fill: #015fc9;
      }

      .cls-5 {
        fill: #ff9d3d;
      }

      .cls-6 {
        fill: #03447a;
      }
    </style>
  </defs>
  <path class="cls-4" d="M102.02,54.37c-.1-.47-.09-.7-.19-.85-11.39-16.33-24.49-31.03-40.86-42.58-4.76-3.36-10.04-5.41-15.9-5.53-10.48-.2-20.96-.26-31.45-.29-.87,0-1.75.68-2.62,1.04.88.38,1.75,1.09,2.63,1.09,7.79.02,15.58,0,23.37-.18,9.26-.21,17.45,2.77,24.12,8.95,6.65,6.16,12.87,12.81,18.85,19.63,6.11,6.96,11.69,14.39,17.66,21.8,1.46-1.03,2.97-2.09,4.39-3.09Z"/>
  <path class="cls-4" d="M96.43,62.01c-9.41-12.13-18.34-23.99-29.71-33.81-7.03-6.08-15.06-8.83-24.17-8.96-4.8-.07-9.6-.06-14.39-.07-4.08-.01-8.15,0-12.23,0-.1.4-.2.8-.29,1.2.92.32,1.84.9,2.76.91,7.3.08,14.6.25,21.89-.02,6.23-.23,11.59,1.76,16.5,5.29,2.51,1.8,4.96,3.72,7.26,5.79,10.02,9.03,18.1,19.7,25.61,30.82.48.7,1.04,1.35,1.6,2.08,1.75-1.09,3.26-2.03,5.17-3.22Z"/>
  <path class="cls-4" d="M18.94,32c-.12.44-.24.87-.36,1.31.95.24,1.88.66,2.84.7,6.58.26,13.18.79,19.75.56,7.59-.27,13.75,2.48,18.64,7.9,5.61,6.21,10.86,12.76,16.18,19.22,3.02,3.67,5.89,7.47,8.87,11.25,1.19-.68,2.07-1.15,2.9-1.67.8-.5,1.56-1.06,2.41-1.65-7.89-11.32-16.88-21.21-27.19-29.79-5.12-4.26-11.33-6.78-18.09-7.21-6.27-.39-12.57-.45-18.86-.61-2.37-.06-4.73-.01-7.1-.01Z"/>
  <path class="cls-4" d="M21.85,45.7c0,.22,0,.44-.01.66.89.19,1.77.48,2.67.54,5.48.35,10.96.92,16.44.9,7.18-.02,13.02,2.64,17.79,7.82,3.17,3.45,6.28,6.98,9.24,10.61,3.72,4.54,7.27,9.22,11.04,14.03,1.61-1.24,2.98-2.3,4.72-3.64-6.73-8.03-13.13-15.93-19.84-23.57-3.39-3.87-8.03-6.15-13.14-6.55-9.13-.72-18.3-.97-27.45-1.37-.48-.02-.97.36-1.46.55Z"/>
  <path class="cls-2" d="M118.94,47.46c-2.4-5.19-4.56-6.19-10.5-5-1.75.35-3.53.32-3.92-1.57-.45-2.21,1.73-1.55,2.92-1.9.18-.05.34-.17.93-.48-4.92-2.03-9.58-2.17-14.93-1.16,3.11,3.86,6,7.26,8.66,10.83,1.27,1.7,2.36,1.99,4.21.95,3.87-2.17,7.87-3.97,12.62-1.67Z"/>
  <path class="cls-4" d="M102.02,54.37c-1.42,1-2.93,2.06-4.39,3.09-5.97-7.41-11.55-14.84-17.66-21.8-5.98-6.82-12.2-13.48-18.85-19.63-6.67-6.17-14.86-9.16-24.12-8.95-7.79.18-15.58.2-23.37.18-.88,0-1.75-.71-2.63-1.09.87-.36,1.75-1.05,2.62-1.04,10.48.03,20.97.08,31.45.29,5.85.11,11.14,2.17,15.9,5.53,16.37,11.55,29.47,26.25,40.86,42.58.1.15.09.38.19.85Z"/>
  <path class="cls-1" d="M96.43,62.01c-1.92,1.19-3.42,2.13-5.17,3.22-.56-.73-1.12-1.37-1.6-2.08-7.52-11.12-15.59-21.79-25.61-30.82-2.3-2.07-4.75-3.99-7.26-5.79-4.91-3.53-10.27-5.51-16.5-5.29-7.29.27-14.59.09-21.89.02-.92,0-1.84-.59-2.76-.91.1-.4.2-.8.29-1.2,4.08,0,8.15,0,12.23,0,4.8.01,9.6,0,14.39.07,9.11.13,17.14,2.88,24.17,8.96,11.36,9.82,20.3,21.68,29.71,33.81Z"/>
  <path class="cls-6" d="M18.94,32c2.37,0,4.74-.05,7.1.01,6.29.16,12.58.22,18.86.61,6.77.42,12.98,2.95,18.09,7.21,10.31,8.58,19.3,18.47,27.19,29.79-.85.58-1.61,1.15-2.41,1.65-.84.52-1.71.99-2.9,1.67-2.97-3.78-5.84-7.58-8.87-11.25-5.33-6.46-10.57-13.01-16.18-19.22-4.89-5.42-11.05-8.17-18.64-7.9-6.57.23-13.17-.3-19.75-.56-.95-.04-1.89-.46-2.84-.7.12-.44.24-.87.36-1.31Z"/>
  <path class="cls-3" d="M21.85,45.7c.49-.19.98-.57,1.46-.55,9.15.4,18.32.65,27.45,1.37,5.11.4,9.74,2.68,13.14,6.55,6.7,7.64,13.11,15.53,19.84,23.57-1.73,1.34-3.11,2.4-4.72,3.64-3.77-4.81-7.32-9.49-11.04-14.03-2.97-3.63-6.07-7.16-9.24-10.61-4.76-5.18-10.6-7.84-17.79-7.82-5.48.02-10.96-.55-16.44-.9-.9-.06-1.78-.35-2.67-.54,0-.22,0-.44.01-.66Z"/>
  <path class="cls-3" d="M118.94,47.46c-4.75-2.3-8.76-.5-12.62,1.67-1.85,1.04-2.95.75-4.21-.95-2.66-3.57-5.55-6.97-8.66-10.83,5.34-1.01,10.01-.87,14.93,1.16-.6.31-.76.43-.93.48-1.19.35-3.37-.31-2.92,1.9.39,1.88,2.17,1.92,3.92,1.57,5.94-1.19,8.1-.2,10.5,5Z"/>
  <path class="cls-4" d="M16.73,90.05l-.08,2.89c-1.48-.13-2.87-.2-4.17-.2-.01,1.7-.02,3.58-.02,5.67,0,3.23.04,6.28.12,9.16h-3.1c.1-2.85.14-5.91.14-9.16,0-2.05-.01-3.93-.04-5.67-1.04,0-2.47.07-4.28.22l.09-2.91h11.35Z"/>
  <path class="cls-4" d="M24.62,94.78l-.64,3.15c-.55-.27-1.1-.4-1.66-.4-1.09,0-1.8.59-2.15,1.78,0,3.58.02,6.33.07,8.26h-2.94c.13-2.7.19-4.91.19-6.62,0-2.13-.18-4.16-.55-6.07l2.82-.38c.13.99.19,1.57.19,1.74h.18c.68-1.26,1.58-1.9,2.71-1.9.53,0,1.13.15,1.79.44Z"/>
  <path class="cls-4" d="M35.06,107.55l-2.61.11c-.12-.38-.18-.72-.18-1.02h-.14c-.81.84-1.91,1.26-3.29,1.26-.92,0-1.69-.31-2.3-.94-.61-.62-.91-1.45-.91-2.48,0-1.36.47-2.48,1.42-3.35.95-.87,2.61-1.33,4.99-1.39.01-.16.02-.31.02-.46,0-.97-.19-1.61-.58-1.92s-1.09-.46-2.11-.46c-1.11,0-2.2.18-3.27.54l.24-2.48c1-.42,2.42-.63,4.25-.63,1.34,0,2.37.34,3.09,1.02s1.09,1.88,1.09,3.58c0,.38-.01,1.06-.04,2.06-.03,1-.04,1.66-.04,1.99,0,1.86.12,3.38.35,4.56ZM32.11,104.76c-.04-1.21-.07-2.26-.07-3.14-2.52,0-3.78.78-3.78,2.33,0,1.07.55,1.6,1.66,1.6.87,0,1.6-.26,2.18-.79Z"/>
  <path class="cls-4" d="M46.76,94.78c0,.52-.66,2.65-1.98,6.39-1.32,3.74-1.98,5.87-1.98,6.39h-3.02c0-.57-.59-2.76-1.76-6.55-1.17-3.79-1.76-5.87-1.76-6.24h3.23c0,.4.36,1.96,1.09,4.68.73,2.71,1.09,4.31,1.09,4.78h.14c0-.43.35-1.94,1.04-4.52.69-2.58,1.04-4.23,1.04-4.94h2.87Z"/>
  <path class="cls-4" d="M57.9,99.8c0,.46-.02,1.05-.07,1.79l-7.13.15c.1,1.01.46,1.86,1.07,2.53.61.67,1.42,1.01,2.41,1.01,1.11,0,2.28-.2,3.53-.61l-.22,2.61c-1.02.45-2.28.67-3.79.67-1.9,0-3.36-.65-4.38-1.95-1.02-1.3-1.52-2.87-1.52-4.7s.48-3.57,1.44-4.97c.96-1.4,2.3-2.11,4.01-2.11,1.56,0,2.73.52,3.49,1.55s1.14,2.37,1.14,4.02ZM55.31,99.68c0-2.06-.72-3.1-2.17-3.1s-2.2,1.07-2.46,3.2l4.63-.11Z"/>
  <path class="cls-4" d="M63.2,107.57h-3.02c.11-3.08.17-6.41.17-10s-.11-6.47-.34-8.92l3.2-.22c-.11,2.54-.17,5.58-.17,9.14s.06,6.94.17,10Z"/>
  <path class="cls-5" d="M85.72,90.05c0,.84-.74,3.8-2.21,8.88-1.48,5.09-2.21,7.97-2.21,8.64h-2.92c0-.71-.45-2.7-1.34-5.99-.95-3.52-1.49-5.84-1.61-6.96h-.19c-.12,1.13-.61,3.47-1.48,7.01-.81,3.31-1.22,5.29-1.22,5.93h-2.99c0-.84-.73-3.84-2.18-9-1.45-5.16-2.18-8-2.18-8.52h3.51c0,.57.42,2.82,1.26,6.76.84,3.94,1.26,6.28,1.26,7.01h.18c0-.74.45-3.03,1.35-6.88.9-3.85,1.35-6.15,1.35-6.88h3.15c0,.67.45,3.01,1.35,7.01.9,4,1.35,6.25,1.35,6.76h.18c0-.65.41-2.84,1.22-6.58.82-3.74,1.22-6.14,1.22-7.19h3.14Z"/>
  <path class="cls-5" d="M90.22,107.57h-2.98c.1-1.86.16-3.99.16-6.39s-.13-4.48-.38-6.27l3.19-.39c-.1,1.74-.14,3.96-.14,6.66,0,2.31.05,4.44.16,6.39ZM90.72,90.72c0,.61-.17,1.14-.52,1.6-.34.46-.82.69-1.43.69-.52,0-.92-.2-1.21-.59-.29-.39-.44-.87-.44-1.43,0-.61.17-1.14.51-1.59.34-.45.82-.67,1.44-.67.52,0,.93.19,1.21.59s.43.86.43,1.41Z"/>
  <path class="cls-5" d="M102.73,107.57h-2.94c.16-2.27.24-4.57.24-6.89,0-1.41-.17-2.36-.51-2.87-.34-.5-.87-.75-1.57-.75-.84,0-1.64.35-2.39,1.05.04,3.5.06,6.65.06,9.46h-2.98c.13-2.81.2-5.01.2-6.62,0-2.14-.18-4.17-.54-6.07l2.83-.38.19,1.43h.18c1.01-1.06,2.17-1.59,3.49-1.59,1.14,0,2.05.33,2.73.98s1.02,1.85,1.02,3.6c0,.26,0,.61-.03,1.04-.02.43-.03.88-.03,1.34,0,1.21.02,3.3.06,6.27Z"/>
  <path class="cls-5" d="M116.23,92.93l-.24,2.5c-1.15,0-1.87.2-2.16.61v.18c.43.67.65,1.43.65,2.26,0,1.28-.39,2.38-1.17,3.28-.78.91-1.94,1.36-3.48,1.36-.75,0-1.37-.07-1.85-.22-.39.22-.59.5-.59.85,0,.55.23.93.7,1.15.47.22,1.56.33,3.27.33,2.96,0,4.44,1.23,4.44,3.67,0,1.72-.62,3.09-1.85,4.1-1.23,1.01-2.73,1.52-4.5,1.52-3.45,0-5.18-1.32-5.18-3.96,0-.82.19-1.51.58-2.08.39-.57.84-.92,1.35-1.04v-.2c-.62-.48-.93-1.2-.93-2.18s.42-1.81,1.27-2.48v-.19c-1.2-.73-1.79-1.86-1.79-3.4,0-1.32.41-2.42,1.23-3.31.82-.89,2.09-1.33,3.81-1.33,1.17,0,2.13.27,2.86.81h.16c.21-1.7.93-2.54,2.15-2.54.48,0,.9.1,1.26.31ZM113.08,109.9c0-.66-.21-1.14-.63-1.44s-1.13-.44-2.15-.44c-.83,0-1.66-.04-2.5-.13-.65.47-.97,1.16-.97,2.09,0,1.72.94,2.58,2.83,2.58,1.06,0,1.89-.24,2.5-.73.61-.48.92-1.13.92-1.92ZM111.77,98.82c0-.81-.21-1.42-.64-1.84-.43-.42-.92-.63-1.47-.63s-1.04.2-1.46.61c-.42.41-.63,1.01-.63,1.8s.21,1.4.64,1.82.93.62,1.49.62,1.02-.2,1.43-.6.63-.99.63-1.77Z"/>
  <path class="cls-5" d="M125.2,103.89c0,2.69-1.64,4.04-4.92,4.04-1.2,0-2.24-.16-3.13-.47l.38-2.65c.92.4,1.84.61,2.76.61s1.5-.09,1.84-.27c.34-.18.52-.48.52-.9,0-.65-.62-1.28-1.86-1.87-1.09-.52-1.88-1.03-2.37-1.53-.68-.7-1.02-1.56-1.02-2.57,0-1.19.37-2.15,1.1-2.88.73-.73,1.79-1.09,3.19-1.09,1.31,0,2.33.14,3.08.42l-.38,2.66c-.83-.4-1.73-.59-2.7-.59-1.18,0-1.77.37-1.77,1.1,0,.38.13.68.38.91.25.23.76.52,1.54.87,1.07.48,1.85.96,2.34,1.47.69.72,1.04,1.64,1.04,2.76Z"/>
</svg>